# xmcd
#
# Track frame offsets: 
#        183
#        13288
#        30220
#        45500
#        59220
#        76568
#        93700
#        108150
#        120653
#        135425
#        150370
#        161033
#        175613
#        191515
#        206863
#        220475
#
# Disc length: 3157 seconds
#
# Revision: 3
# Processed by: cddbd v1.5.2PL0 Copyright (c) Steve Scherf et al.
# Submitted via: ExactAudioCopyFreeDBPlugin 1.0
#
DISCID=d00c5310
DTITLE=Olivia Newton-John - Early Olivia
DYEAR=1989
DGENRE=Country
TTITLE0=If Not For You
TTITLE1=Love Song
TTITLE2=What Is Life
TTITLE3=Everything I Own
TTITLE4=The Air That I Breathe
TTITLE5=Me And Bobby McGee
TTITLE6=Music Makes My Day
TTITLE7=Long Live Love
TTITLE8=Banks Of The Ohio
TTITLE9=Take Me Home Country Roads
TTITLE10=Help Me Make It Through The Night
TTITLE11=If You Love Me (Let Me Know)
TTITLE12=Have You Never Been Mellow
TTITLE13=Please Mr Please
TTITLE14=Let Me Be There
TTITLE15=I Honestly Love You
EXTD=
EXTT0=
EXTT1=
EXTT2=
EXTT3=
EXTT4=
EXTT5=
EXTT6=
EXTT7=
EXTT8=
EXTT9=
EXTT10=
EXTT11=
EXTT12=
EXTT13=
EXTT14=
EXTT15=
PLAYORDER=
